<svg xmlns="http://www.w3.org/2000/svg" width="200" height="200" viewBox="0 0 200 200" version="1.1">
	<path d="M 27 80.441 C 27 114.911, 27.280 125.057, 28.250 125.662 C 28.938 126.092, 40.300 126.749, 53.500 127.124 C 78.343 127.829, 83.368 128.607, 92.210 133.110 C 94.251 134.150, 96.163 135, 96.460 135 C 96.757 135, 97 118.397, 97 98.104 L 97 61.207 93.353 58.005 C 87.235 52.633, 78.494 49.623, 60 46.517 C 49.323 44.724, 39.784 41.865, 32.783 38.361 C 30.189 37.062, 27.827 36, 27.533 36 C 27.240 36, 27 55.998, 27 80.441 M 161.500 39.746 C 155.943 42.223, 148.462 44.308, 137 46.576 C 118.581 50.220, 111.155 52.656, 105.105 57.039 L 101 60.013 101 97.390 L 101 134.768 106.958 132.361 C 114.711 129.229, 127.292 127.654, 138.250 128.442 C 143.063 128.789, 147 128.706, 147 128.258 C 147 127.811, 146.335 126.496, 145.523 125.336 C 144.207 123.458, 143.344 123.283, 137.641 123.741 C 132.266 124.172, 130.373 123.859, 125.862 121.794 C 115.778 117.178, 110.871 110.003, 110.193 98.882 C 109.533 88.064, 114.529 79.407, 124.220 74.578 C 134.707 69.352, 148.825 72.111, 155.974 80.784 C 164.071 90.608, 163.805 106.302, 155.392 115.105 L 152.903 117.711 156.101 122.855 C 159.632 128.536, 161.408 129.110, 167.532 126.551 L 171 125.102 171 80.551 C 171 56.048, 170.662 36.041, 170.250 36.091 C 169.838 36.140, 165.900 37.785, 161.500 39.746 M 18.239 92.104 L 18.500 134.466 22.500 135.292 C 24.700 135.746, 37.132 136.273, 50.127 136.464 C 75.744 136.840, 83.235 138.045, 94.057 143.529 L 98.995 146.031 104.998 143.001 C 114.184 138.364, 122.604 136.755, 137.750 136.742 C 145.037 136.736, 150.993 136.454, 150.985 136.115 C 150.976 135.777, 150.558 134.850, 150.056 134.056 C 149.326 132.902, 146.071 132.609, 133.821 132.594 C 116.487 132.574, 110.221 133.884, 103.143 139.011 L 98.914 142.075 96.207 140.172 C 86.267 133.184, 80.441 131.954, 53 131.052 C 38.672 130.581, 28.236 129.798, 26.262 129.046 L 23.024 127.813 22.762 90.278 L 22.500 52.743 20.239 51.242 L 17.978 49.742 18.239 92.104 M 176.750 51.080 C 175.132 52.022, 175 54.954, 175 89.898 L 175 127.696 171.250 129.280 C 169.188 130.151, 166.294 131.232, 164.820 131.682 C 162.395 132.422, 162.273 132.681, 163.535 134.393 C 164.795 136.104, 165.628 136.200, 172.215 135.393 L 179.500 134.500 179.761 92.250 C 179.904 69.013, 179.679 50.014, 179.261 50.030 C 178.842 50.047, 177.713 50.519, 176.750 51.080 M 9 102.878 C 9 136.611, 9.272 146.040, 10.250 146.184 C 10.938 146.285, 25.450 146.400, 42.500 146.439 C 71.478 146.506, 74.015 146.656, 81.397 148.752 C 85.740 149.985, 91.342 152.138, 93.845 153.537 L 98.395 156.080 104.500 153.074 C 114.006 148.395, 121.786 146.898, 139.750 146.290 C 148.688 145.988, 156 145.435, 156 145.061 C 156 144.688, 155.404 143.567, 154.675 142.570 C 153.504 140.969, 151.663 140.751, 138.925 140.707 C 122.418 140.649, 115.436 142.041, 105.333 147.407 L 99.001 150.768 91.547 147.023 C 80.242 141.344, 74.962 140.596, 48.133 140.873 C 35.282 141.006, 22.349 140.813, 19.395 140.444 L 14.023 139.772 13.762 101.258 L 13.500 62.743 11.250 61.250 L 9 59.756 9 102.878 M 185.750 61.392 C 184.137 62.616, 184 65.707, 184 100.801 C 184 121.746, 183.607 139.125, 183.126 139.422 C 182.645 139.720, 179.057 140.260, 175.153 140.622 L 168.054 141.282 169.742 144.141 C 171.328 146.825, 171.831 146.999, 177.966 146.986 C 181.560 146.979, 185.512 146.701, 186.750 146.370 L 189 145.767 189 102.883 C 189 79.298, 188.662 60.014, 188.250 60.032 C 187.838 60.049, 186.713 60.661, 185.750 61.392 M 128.925 76.549 C 123.604 78.188, 117.422 83.773, 115.236 88.914 C 113.006 94.159, 113.255 102.665, 115.783 107.595 C 123.761 123.155, 145.095 124.391, 154.717 109.852 C 158.258 104.501, 159.136 94.145, 156.494 88.902 C 153.550 83.061, 147.963 78.067, 142.586 76.470 C 136.639 74.704, 134.881 74.714, 128.925 76.549 M 127.168 81.146 C 116.671 86.342, 113.656 100.982, 121.291 109.678 C 127.337 116.564, 135.804 118.635, 143.541 115.120 C 151.297 111.598, 155.759 103.552, 154.609 95.165 C 152.854 82.360, 139.007 75.286, 127.168 81.146 M 132.115 83.014 C 130.254 83.448, 127.134 85.399, 125.183 87.350 C 122.082 90.451, 121.588 91.629, 121.262 96.699 C 120.969 101.261, 121.327 103.196, 122.936 105.759 C 130.910 118.461, 151 113.123, 151 98.302 C 151 89.753, 146.279 84.436, 137 82.534 C 136.175 82.365, 133.977 82.581, 132.115 83.014 M 148.565 120.895 C 147.866 122.026, 166.597 158, 167.885 158 C 168.288 158, 169.454 157.388, 170.477 156.640 C 172.226 155.361, 171.725 154.309, 162.014 138.890 C 150.440 120.514, 149.543 119.313, 148.565 120.895" stroke="none" fill="black" fill-rule="evenodd"/>
</svg>