<svg xmlns="http://www.w3.org/2000/svg" width="180" height="122" version="1.1" style=""><rect id="backgroundrect" width="100%" height="100%" x="0" y="0" fill="none" stroke="none" class="" style=""/>
	
<g class="currentLayer" style=""><title>Layer 1</title><path d="M18.65359479188919,44.441 C18.65359479188919,78.911 18.933594791889192,89.057 19.90359479188919,89.662 C20.59159479188919,90.092 31.953594791889188,90.749 45.15359479188919,91.124 C69.9965947918892,91.829 75.02159479188919,92.607 83.86359479188918,97.11000000000001 C85.9045947918892,98.15 87.81659479188919,99 88.11359479188918,99 C88.4105947918892,99 88.65359479188919,82.397 88.65359479188919,62.104 L88.65359479188919,25.207 L85.00659479188919,22.005000000000003 C78.88859479188919,16.633000000000003 70.14759479188919,13.622999999999998 51.65359479188919,10.517000000000003 C40.97659479188919,8.723999999999997 31.43759479188919,5.865000000000002 24.436594791889192,2.360999999999997 C21.84259479188919,1.0619999999999976 19.480594791889192,-1.1102230246251565e-16 19.186594791889192,-1.1102230246251565e-16 C18.89359479188919,-1.1102230246251565e-16 18.65359479188919,19.997999999999998 18.65359479188919,44.441 M153.1535947918892,3.746000000000002 C147.5965947918892,6.222999999999999 140.11559479188918,8.308 128.6535947918892,10.576 C110.2345947918892,14.219999999999999 102.80859479188919,16.656 96.7585947918892,21.039 L92.65359479188919,24.012999999999998 L92.65359479188919,61.39 L92.65359479188919,98.768 L98.61159479188919,96.36099999999999 C106.36459479188919,93.22900000000001 118.94559479188919,91.654 129.9035947918892,92.44200000000001 C134.71659479188918,92.78899999999999 138.6535947918892,92.70599999999999 138.6535947918892,92.25800000000001 C138.6535947918892,91.811 137.9885947918892,90.496 137.1765947918892,89.336 C135.86059479188918,87.458 134.99759479188918,87.283 129.29459479188918,87.741 C123.91959479188918,88.172 122.02659479188918,87.859 117.51559479188919,85.794 C107.4315947918892,81.178 102.52459479188919,74.003 101.84659479188919,62.882000000000005 C101.18659479188919,52.06399999999999 106.18259479188919,43.407 115.87359479188919,38.578 C126.36059479188918,33.352000000000004 140.47859479188918,36.111000000000004 147.62759479188918,44.784000000000006 C155.7245947918892,54.608000000000004 155.4585947918892,70.302 147.0455947918892,79.105 L144.55659479188918,81.711 L147.7545947918892,86.855 C151.2855947918892,92.536 153.06159479188918,93.11000000000001 159.1855947918892,90.551 L162.6535947918892,89.102 L162.6535947918892,44.551 C162.6535947918892,20.048000000000002 162.3155947918892,0.040999999999996754 161.9035947918892,0.09100000000000114 C161.49159479188918,0.14000000000000065 157.5535947918892,1.7849999999999966 153.1535947918892,3.746000000000002 M9.892594791889191,56.104 L10.15359479188919,98.46600000000001 L14.15359479188919,99.292 C16.35359479188919,99.74600000000001 28.78559479188919,100.273 41.78059479188919,100.464 C67.39759479188919,100.84 74.88859479188919,102.04499999999999 85.71059479188919,107.529 L90.6485947918892,110.031 L96.6515947918892,107.001 C105.83759479188919,102.364 114.25759479188919,100.755 129.4035947918892,100.74199999999999 C136.6905947918892,100.73599999999999 142.64659479188919,100.45400000000001 142.6385947918892,100.11500000000001 C142.6295947918892,99.77699999999999 142.21159479188918,98.85 141.7095947918892,98.05600000000001 C140.97959479188918,96.90199999999999 137.7245947918892,96.60900000000001 125.47459479188919,96.594 C108.14059479188919,96.57400000000001 101.8745947918892,97.88399999999999 94.79659479188919,103.011 L90.56759479188919,106.07499999999999 L87.86059479188918,104.172 C77.92059479188919,97.184 72.0945947918892,95.95400000000001 44.65359479188919,95.05199999999999 C30.325594791889188,94.58099999999999 19.88959479188919,93.798 17.91559479188919,93.04599999999999 L14.677594791889192,91.813 L14.415594791889191,54.278000000000006 L14.15359479188919,16.743000000000002 L11.892594791889191,15.241999999999997 L9.631594791889192,13.741999999999997 L9.892594791889191,56.104 M168.4035947918892,15.079999999999998 C166.7855947918892,16.022 166.6535947918892,18.954 166.6535947918892,53.897999999999996 L166.6535947918892,91.696 L162.9035947918892,93.28 C160.84159479188918,94.15100000000001 157.9475947918892,95.232 156.47359479188918,95.68199999999999 C154.0485947918892,96.422 153.9265947918892,96.68100000000001 155.1885947918892,98.393 C156.44859479188918,100.10400000000001 157.28159479188918,100.19999999999999 163.8685947918892,99.393 L171.1535947918892,98.5 L171.4145947918892,56.25 C171.5575947918892,33.013000000000005 171.3325947918892,14.014000000000003 170.9145947918892,14.030000000000001 C170.4955947918892,14.046999999999997 169.36659479188918,14.518999999999998 168.4035947918892,15.079999999999998 M0.6535947918891907,66.878 C0.6535947918891907,100.61099999999999 0.9255947918891909,110.03999999999999 1.9035947918891907,110.184 C2.5915947918891913,110.285 17.10359479188919,110.4 34.15359479188919,110.439 C63.131594791889185,110.506 65.66859479188919,110.656 73.0505947918892,112.75200000000001 C77.39359479188919,113.98500000000001 82.99559479188919,116.138 85.49859479188919,117.537 L90.04859479188919,120.08000000000001 L96.15359479188919,117.07400000000001 C105.65959479188919,112.39500000000001 113.43959479188919,110.898 131.4035947918892,110.28999999999999 C140.34159479188918,109.988 147.6535947918892,109.435 147.6535947918892,109.061 C147.6535947918892,108.68799999999999 147.0575947918892,107.56700000000001 146.3285947918892,106.57 C145.15759479188918,104.969 143.3165947918892,104.751 130.5785947918892,104.707 C114.0715947918892,104.649 107.0895947918892,106.041 96.98659479188919,111.40700000000001 L90.6545947918892,114.768 L83.20059479188919,111.023 C71.8955947918892,105.344 66.6155947918892,104.596 39.78659479188919,104.87299999999999 C26.935594791889187,105.006 14.00259479188919,104.81299999999999 11.04859479188919,104.44399999999999 L5.67659479188919,103.77199999999999 L5.415594791889191,65.258 L5.153594791889191,26.743000000000002 L2.9035947918891907,25.25 L0.6535947918891907,23.756 L0.6535947918891907,66.878 M177.4035947918892,25.392000000000003 C175.7905947918892,26.616 175.6535947918892,29.706999999999994 175.6535947918892,64.801 C175.6535947918892,85.746 175.2605947918892,103.125 174.7795947918892,103.422 C174.2985947918892,103.72 170.71059479188918,104.25999999999999 166.80659479188918,104.62200000000001 L159.7075947918892,105.28200000000001 L161.39559479188918,108.14099999999999 C162.9815947918892,110.82499999999999 163.48459479188918,110.999 169.6195947918892,110.98599999999999 C173.2135947918892,110.97900000000001 177.1655947918892,110.701 178.4035947918892,110.37 L180.6535947918892,109.767 L180.6535947918892,66.883 C180.6535947918892,43.298 180.3155947918892,24.014000000000003 179.9035947918892,24.031999999999996 C179.49159479188918,24.049 178.36659479188918,24.661 177.4035947918892,25.392000000000003 M120.5785947918892,40.54900000000001 C115.25759479188919,42.188 109.07559479188919,47.772999999999996 106.8895947918892,52.914 C104.65959479188919,58.159000000000006 104.90859479188919,66.665 107.43659479188919,71.595 C115.41459479188919,87.155 136.7485947918892,88.391 146.3705947918892,73.852 C149.9115947918892,68.501 150.7895947918892,58.144999999999996 148.1475947918892,52.902 C145.2035947918892,47.06100000000001 139.61659479188918,42.06699999999999 134.2395947918892,40.47 C128.2925947918892,38.70399999999999 126.53459479188919,38.714 120.5785947918892,40.54900000000001 M118.8215947918892,45.146 C108.3245947918892,50.342 105.3095947918892,64.982 112.94459479188919,73.678 C118.9905947918892,80.564 127.45759479188919,82.635 135.1945947918892,79.12 C142.9505947918892,75.598 147.41259479188918,67.552 146.2625947918892,59.165000000000006 C144.5075947918892,46.36 130.6605947918892,39.286 118.8215947918892,45.146 M123.7685947918892,47.013999999999996 C121.90759479188918,47.44799999999999 118.78759479188919,49.399 116.8365947918892,51.349999999999994 C113.73559479188918,54.45099999999999 113.24159479188918,55.629000000000005 112.91559479188919,60.699 C112.62259479188918,65.261 112.98059479188919,67.196 114.5895947918892,69.759 C122.56359479188919,82.461 142.6535947918892,77.123 142.6535947918892,62.30200000000001 C142.6535947918892,53.753 137.9325947918892,48.43600000000001 128.6535947918892,46.534000000000006 C127.8285947918892,46.364999999999995 125.6305947918892,46.581 123.7685947918892,47.013999999999996 M140.2185947918892,84.895 C139.5195947918892,86.026 158.2505947918892,122 159.53859479188918,122 C159.9415947918892,122 161.1075947918892,121.388 162.1305947918892,120.63999999999999 C163.8795947918892,119.36099999999999 163.37859479188918,118.309 153.6675947918892,102.88999999999999 C142.0935947918892,84.514 141.1965947918892,83.313 140.2185947918892,84.895 " stroke="none" fill="#b3a1de" fill-rule="evenodd" id="svg_1" class="" fill-opacity="1" opacity="0.87"/></g></svg>
